# xmcd
#
# Track frame offsets:
#	150
#	13056
#	31582
#	44252
#	58291
#	77685
#	94742
#	109929
#	122104
#	133436
#	146348
#
# Disc length: 2117 seconds
#
# Revision: 0
# Processed by: cddbd v1.5.2PL0 Copyright (c) Steve Scherf et al.
# Submitted via: EasyCDDAExtractor 16.1.0.1
#
DISCID=9608430b
DTITLE=T-Bone Walker - T-Bone Blues
DYEAR=1960
DGENRE=Blues
TTITLE0=Two Bones And A Pick
TTITLE1=Mean Old World
TTITLE2=T-Bone Shuffle
TTITLE3=Stormy Monday Blues
TTITLE4=Blues For Marili
TTITLE5=T-Bone Blues
TTITLE6=Shufflin' The Blues
TTITLE7=Evenin'
TTITLE8=Play On Little Girl
TTITLE9=Blues Rock
TTITLE10=Papa Ain't Salty
EXTD=
EXTT0=
EXTT1=
EXTT2=
EXTT3=
EXTT4=
EXTT5=
EXTT6=
EXTT7=
EXTT8=
EXTT9=
EXTT10=
PLAYORDER=
